<svg width="70" height="112" viewBox="0 0 70 112" fill="none" xmlns="http://www.w3.org/2000/svg">
<path d="M0.707031 111.429H69.1987V0H0.707031V111.429ZM60.7442 0.657544H68.5429V102.532L60.7442 0.657544ZM52.2934 0.657544H60.0876L67.8825 102.483L52.2926 0.657544H52.2934ZM43.8441 0.657544H51.6308L67.2048 102.385L43.8434 0.657544H43.8441ZM35.3964 0.657544H43.1717L66.4985 102.236L35.3956 0.657544H35.3964ZM26.9501 0.657544H34.7112L65.7538 102.04L26.9501 0.657544ZM18.5054 0.657544H26.2483L64.9632 101.807L18.5046 0.657544H18.5054ZM10.0621 0.657544H17.7848L64.1161 101.535L10.0621 0.657544ZM1.62116 0.657544H9.31894L63.2049 101.221L1.62116 0.657544ZM1.36213 8.89765L9.16082 110.771H1.36213V8.89765ZM2.0225 8.94532L17.6123 110.771H9.81742L2.0225 8.94532ZM2.70019 9.04596L26.0616 110.771H18.275L2.69944 9.04596H2.70019ZM3.40574 9.19124L34.5094 110.771H26.734L3.40498 9.19124H3.40574ZM4.15119 9.38646L42.9556 110.771H35.1938L4.15044 9.38646H4.15119ZM4.94183 9.62178L51.4004 110.771H43.6574L4.94108 9.62178H4.94183ZM5.79044 9.89797L59.8421 110.771H52.1195L5.78969 9.89797H5.79044ZM6.70081 10.2074L68.2853 110.771H60.586L6.70081 10.2074Z" fill="white"/>
</svg>
